<?xml version="1.0" encoding="UTF-8" standalone="no"?>
<!DOCTYPE svg PUBLIC "-//W3C//DTD SVG 1.1//EN" "http://www.w3.org/Graphics/SVG/1.1/DTD/svg11.dtd">
<svg width="100%" height="100%" viewBox="0 0 600 600" version="1.1" xmlns="http://www.w3.org/2000/svg" xmlns:xlink="http://www.w3.org/1999/xlink" xml:space="preserve" xmlns:serif="http://www.serif.com/" style="fill-rule:evenodd;clip-rule:evenodd;stroke-linejoin:round;stroke-miterlimit:2;">
    <g transform="matrix(1,0,0,1,-664,0)">
        <g id="icon-cricketbow" transform="matrix(1,0,0,1,664,0)">
            <rect x="0" y="0" width="600" height="600" style="fill:none;"/>
            <g id="CricketBow-Icon" serif:id="CricketBow Icon" transform="matrix(5.24065,0,0,5.24065,-341.777,44.2928)">
                <g id="note" transform="matrix(1,0,0,1,-1.02737,0.305756)">
                    <path d="M128.071,12.734L128.6,12.963C129.112,13.146 129.961,13.361 130.988,13.279C132.692,13.142 133.919,12.529 133.919,12.529L133.919,15.719C133.919,15.719 132.542,16.536 130.988,16.536C130.219,16.536 129.531,16.386 129.031,16.235L129.031,17.718C129.535,17.854 130.211,17.962 130.988,17.9C132.692,17.763 133.919,17.15 133.919,17.15L133.919,19.263C133.919,19.263 132.542,20.08 130.988,20.08C130.219,20.08 129.531,19.931 129.031,19.778L129.031,25.755C129.031,28.073 127.153,29.951 124.835,29.951C122.518,29.951 120.64,28.073 120.64,25.755C120.64,23.439 122.518,21.56 124.835,21.56C125.592,21.56 126.3,21.76 126.913,22.109L126.913,12.256L128.071,12.734Z" style="fill:white;"/>
                </g>
                <path id="note1" serif:id="note" d="M101.627,19.542L102.2,19.486C102.737,19.398 103.584,19.174 104.442,18.605C105.866,17.66 106.642,16.528 106.642,16.528L108.188,19.318C108.188,19.318 107.38,20.7 106.021,21.454C105.349,21.826 104.674,22.029 104.164,22.139L104.882,23.436C105.39,23.311 106.032,23.077 106.682,22.646C108.106,21.701 108.881,20.569 108.881,20.569L109.906,22.417C109.906,22.417 109.098,23.8 107.74,24.554C107.067,24.926 106.393,25.129 105.881,25.238L108.779,30.466C109.903,32.492 109.17,35.046 107.144,36.169C105.117,37.292 102.564,36.56 101.44,34.534C100.317,32.507 101.049,29.954 103.076,28.83C103.737,28.464 104.453,28.295 105.159,28.304L100.382,19.687L101.627,19.542Z" style="fill:white;"/>
                <path d="M158.735,45.156C156.042,35.673 153.104,31.907 151.574,30.497C152.283,30.785 153.047,30.982 153.857,30.982C155.439,30.982 156.845,30.233 157.743,29.071C159.736,34.064 161.497,40.356 162.93,45.995C165.128,54.639 166.78,66.238 167.173,69.171C168.323,68.656 169.466,68.554 170.531,68.632C176.975,69.101 178.37,75.012 178.37,76.932C174.109,73.517 169.19,73.516 163.614,76.929C163.614,69.071 161.76,55.811 158.735,45.156" style="fill:white;"/>
                <path d="M145.359,49.164C150.223,52.716 153.337,56.846 154.957,60.02C158.217,66.414 156.795,72.056 149.586,72.056L138.447,72.056C138.901,71.381 139.474,70.44 139.861,69.646C141.945,65.365 143.332,59.608 144.794,51.622C144.951,50.766 145.166,49.953 145.359,49.164" style="fill:white;"/>
                <path d="M109.721,74.501C109.721,75.372 109.523,76.196 109.17,76.934C105.705,75.097 102.12,75.253 98.985,76.931C98.633,76.194 98.437,75.37 98.437,74.501C98.437,71.385 100.963,68.858 104.079,68.858C107.194,68.858 109.721,71.385 109.721,74.501" style="fill:white;"/>
                <g transform="matrix(1,0,0,1,12.8267,0)">
                    <path d="M109.721,74.501C109.721,75.372 109.523,76.196 109.17,76.934C105.705,75.097 102.12,75.253 98.985,76.931C98.633,76.194 98.437,75.37 98.437,74.501C98.437,71.385 100.963,68.858 104.079,68.858C107.194,68.858 109.721,71.385 109.721,74.501" style="fill:white;"/>
                </g>
                <g transform="matrix(1.73807e-17,0.283848,-0.276108,1.69067e-17,168.769,-29.5783)">
                    <path d="M364.257,284.703C365.581,297.923 361.706,309.197 354.721,317.534C347.78,325.819 337.525,330.742 326.041,330.905C322.063,331.09 318.295,330.544 314.741,329.655C309.19,328.267 304.211,325.715 300.133,322.016C293.467,315.969 289.058,307.188 288.414,296.577C287.77,286.595 290.544,277.092 296.605,270.259C302.436,263.686 311.059,259.581 322.214,259.675C330.722,259.863 338.529,263.265 344.05,268.902C349.581,274.548 353.011,281.744 352.725,290.882C352.507,297.859 349.718,304.203 345.19,308.291C340.604,312.43 334.043,314.892 327.512,315.063C321.289,315.226 315.753,313.173 311.858,309.892C307.794,306.468 305.79,302.533 305.433,296.266C305.127,290.881 306.716,286.674 309.369,283.731C312.263,280.518 316.51,279.001 320.757,279.139C323.691,279.185 326.937,280.197 329.486,282.243C331.605,283.944 333.406,286.289 333.785,289.732C334.173,292.56 333.648,295.195 332.085,297.125C330.307,299.321 327.816,300.978 324.888,301.107C322.638,301.223 320.451,300.836 318.823,299.635C317.153,298.403 315.874,296.678 315.789,294.37C315.713,292.311 316.472,290.347 318.025,289.233C319.619,288.09 321.778,287.685 324.249,288.633C324.748,288.882 325.356,288.679 325.604,288.179C325.853,287.68 325.65,287.073 325.151,286.824C321.945,284.822 318.791,285.002 316.246,286.171C313.261,287.541 311.435,290.475 310.888,293.975C310.232,298.182 311.732,301.72 314.289,304.566C316.498,307.025 320.515,308.77 324.565,309.294C330.205,309.979 336.978,307.959 340.849,304.685C344.842,301.308 347.603,295.85 347.24,288.78C346.814,280.482 343.111,275.346 338.327,271.36C333.203,267.092 327.451,265.463 321.055,265.418C312.985,265.362 305.343,268.14 299.63,275.443C295.346,280.918 292.936,288.304 293.94,297.706C294.862,306.224 298.54,313.796 305.373,318.952C311.354,323.465 319.033,325.893 328.158,325.103C337.411,324.3 345.562,320.456 351.374,314.463C357.243,308.41 360.855,300.263 360.658,290.885C360.568,280.274 356.228,270.766 349.376,263.708C342.533,256.659 333.146,252.032 322.561,251.521C308.425,250.644 297.229,255.558 289.37,263.475C281.001,271.906 276.546,283.982 276.622,296.992C276.761,311.298 282.187,323.461 290.894,331.88C296.539,337.338 303.609,341.289 311.574,343.06C316.451,344.145 321.663,344.366 327.061,343.761C341.575,341.655 354.038,334.007 361.266,322.249C367.636,311.886 370.099,298.69 366.245,284.339C366.145,283.791 365.618,283.427 365.069,283.527C364.521,283.628 364.157,284.154 364.257,284.703Z" style="fill:white;"/>
                </g>
                <g transform="matrix(0.24,0,0,0.24,0,0)">
                    <path d="M608.644,96.288C600.695,106.239 557.232,154.493 529.995,212.132C502.758,269.77 517.417,306.13 534.216,312.006C553.803,318.858 577.845,299.084 589.631,238.29C601.2,178.621 606.06,153.154 610.434,132.91C614.807,112.671 620.368,103.463 624.735,98.623C628.028,94.972 632.994,93.049 638.058,93.325C641.466,93.51 646.727,95.472 648.597,100.821C650.419,106.035 648.736,110.306 645.294,112.875C642.203,115.182 637.491,116.193 633.765,114.605C630.839,113.359 628.843,110.37 629.143,107.762C629.515,104.531 631.795,102.073 635.218,101.613C637.565,101.297 638.609,102.806 638.856,103.275C639.841,105.143 638.703,107.096 637.513,108.026C636.57,108.763 635.317,108.933 634.75,108.89C634.32,108.857 634.319,108.976 634.533,109.235C634.959,109.752 636.094,111.85 640.326,111.592C644.101,111.363 646.167,107.846 646.22,105.287C646.35,99.101 640.376,96.327 635.703,96.614C629.765,96.978 624.927,101.936 623.662,107.092C622.34,112.482 624.387,118.383 630.164,121.82C637.541,126.17 646.511,124.524 652.712,119.402C658.637,114.509 661.712,106.219 659.115,96.839C656.695,88.932 651.598,84.659 645.746,82.622C636.404,79.369 625.859,81.68 620.274,85.635C617.103,87.862 611.615,92.569 608.644,96.288ZM596.789,119.908C596.789,119.908 568.634,156.29 547.319,194.717C542.298,203.768 537.669,212.923 533.895,221.765C529.4,232.291 526.177,242.384 524.679,251.235C524.029,255.828 523.517,260.355 523.39,264.7C523.165,272.426 523.852,279.562 525.506,285.415C528.391,295.627 534.045,302.232 542.867,302.8C548.698,303.328 553.632,300.869 557.657,296.95C562.964,291.784 566.632,283.904 567.28,276.561C568.017,268.481 564.368,263.054 559.801,260.81C557.282,259.572 554.149,259.25 551.414,260.092C548.198,261.082 545.141,263.515 543.371,267.641C542.263,270.261 541.822,273.324 542.18,276.443C542.853,282.298 545.372,287.736 545.372,287.736C545.431,287.947 545.651,288.071 545.862,288.011C546.074,287.952 546.197,287.732 546.137,287.521C546.137,287.521 545.698,283.146 546.309,278.345C546.651,275.658 548.996,266.737 556.033,268.824C558.157,269.454 559.868,272.334 559.859,276.214C559.847,281.054 558.392,286.454 555.52,290.552C554.359,292.209 552.996,293.682 551.404,294.737C549.158,296.225 546.488,296.807 543.632,296.356C537.928,295.367 535.358,290.232 534.098,283.4C533.437,279.821 533.295,275.768 533.347,271.397C533.415,265.583 533.923,259.23 534.955,252.748C535.99,244.497 538.716,235.077 542.363,225.121C545.583,216.33 549.497,207.147 553.784,198.024C572.347,158.522 597.436,120.37 597.436,120.37C597.563,120.191 597.522,119.943 597.344,119.815C597.165,119.688 596.917,119.729 596.789,119.908Z" style="fill:white;"/>
                </g>
                <path d="M172.125,63.464L172.125,60.28L172.906,60.28L173.711,62.823L174.488,60.28L175.254,60.28L175.254,63.464L174.77,63.464L174.77,60.792L173.949,63.464L173.469,63.464L172.613,60.753L172.613,63.464L172.125,63.464ZM170.199,63.464L170.199,60.753L169.168,60.753L169.168,60.28L171.77,60.28L171.77,60.753L170.73,60.753L170.73,63.464L170.199,63.464Z" style="fill:white;fill-rule:nonzero;"/>
                <g transform="matrix(0.24,0,0,0.24,0,0)">
                    <path d="M405.696,210.215C410.74,205.349 452.324,167.54 520.457,173.901C527.061,174.517 533.382,175.426 539.436,176.601C530.669,191.272 522.39,207.192 515.973,223.547C506.515,247.642 504.736,269.43 507.861,286.268C502.269,281.438 494.986,278.522 487.023,278.522C476.082,278.522 466.432,284.026 460.682,292.417C454.936,284.026 445.286,278.522 434.348,278.522C427.48,278.522 421.125,280.689 415.918,284.381C421.123,275.404 424.104,264.978 424.104,253.86C424.104,236.758 417.049,221.29 405.696,210.215Z" style="fill:white;"/>
                </g>
                <g id="antennae" transform="matrix(0.0764317,0,0,0.0764317,-62.4519,-70.1649)">
                    <path d="M1986.46,1527.92C1989.14,1516.07 1991.74,1496.53 1987.77,1473.6C1984.46,1454.48 1976.59,1433.03 1960.44,1411.65C1941.63,1386.57 1909.8,1370.75 1877.36,1370.1C1847.44,1369.5 1816.93,1381.86 1795.35,1412.4C1781.3,1432.14 1776.09,1451.59 1775.46,1468.72C1774.21,1502.42 1790.08,1527.13 1790.08,1527.13L1790.08,1527.13C1792.28,1530.4 1791.41,1534.86 1788.13,1537.06C1784.86,1539.26 1780.41,1538.39 1778.2,1535.11C1778.2,1535.11 1758.81,1507.27 1758.99,1468.38C1759.08,1448.35 1764.39,1425.45 1780.05,1401.88C1805.07,1364.48 1841.58,1348.77 1877.59,1348.82C1916.77,1348.88 1955.31,1368.02 1978.37,1398.05C1987.92,1410.58 1994.98,1423.15 2000.13,1435.38C1996.96,1404.73 1986.68,1370.97 1962.35,1339.65C1934.97,1304.1 1893.05,1282.51 1849.75,1281.3C1809.33,1280.18 1767.75,1296.82 1735.42,1336.6C1716.95,1359.21 1709.62,1383.53 1707.91,1405.6C1704.7,1447.05 1720.79,1480.61 1720.79,1480.61L1720.79,1480.61C1722.65,1484.36 1721.13,1488.91 1717.39,1490.79C1713.64,1492.65 1709.09,1491.13 1707.22,1487.39C1707.22,1487.39 1688.24,1450.62 1690.52,1404.49C1691.78,1379.08 1699.52,1350.93 1720.02,1324.37C1756.12,1277.85 1803.74,1257.98 1850.19,1258.48C1900.45,1259.02 1949.41,1283.72 1981.66,1324.59C2009.46,1360.11 2021.83,1397.1 2025.93,1432.28C2029.26,1460.74 2028.22,1503.99 2015.05,1534.44L2015.05,1534.44C2005.81,1531.56 1996.26,1529.37 1986.46,1527.92Z" style="fill:white;"/>
                </g>
            </g>
        </g>
    </g>
</svg>
